<svg width="207" height="57" viewBox="0 0 207 57" fill="none" xmlns="http://www.w3.org/2000/svg">
<path d="M42.7892 39.3835H40.9084C39.7798 39.3835 43.6252 44.6913 46.4047 45.288C47.0317 45.4114 47.3452 45.72 47.3452 46.3166V50.2049C47.3243 50.9455 46.8854 51.2953 46.1539 51.1924C40.8457 50.3283 36.9794 47.5304 34.5761 42.778C34.2208 42.0991 33.9491 41.3997 33.7401 40.659C33.343 39.4452 33.3013 39.3835 31.9846 39.3424C30.3545 39.3012 29.2887 38.4783 28.9334 37.0176C28.5364 35.3718 29.853 33.6436 31.6085 33.5408C31.8592 33.5202 32.0891 33.5202 32.3399 33.5408C33.0923 33.6025 33.4893 33.191 33.6774 32.5327C34.1372 30.8869 34.8687 29.3233 35.8509 27.9244C36.6659 26.7517 37.0839 26.7106 38.1079 27.6775C38.8812 28.4181 39.6335 29.1999 40.4068 29.9405C40.9084 30.4137 41.0338 30.928 40.5949 31.5041C40.365 31.8126 40.1769 32.1418 40.0097 32.4916C39.6544 33.2116 39.8425 33.5202 40.6576 33.5202C42.0787 33.5408 43.4789 33.5202 44.9209 33.5202C46.4256 33.5408 47.5332 34.446 47.8885 35.9272C48.1602 37.1205 47.4914 38.5812 46.1957 39.0543C45.4434 39.3424 44.5447 39.3012 43.7088 39.3629C43.4162 39.4041 43.1027 39.3835 42.7892 39.3835Z" fill="#007EA4"/>
<path d="M49.0588 21.5879C53.9699 21.7936 58.296 24.18 61.2636 28.85C62.2876 30.4753 61.995 31.9771 60.5321 32.8617C58.9647 33.8492 57.2092 33.4378 56.227 31.8742C54.7432 29.5084 52.6533 28.0066 49.8738 27.4922C47.6586 27.1014 45.3597 27.5128 43.437 28.6855C42.5593 29.2204 42.2876 29.1586 41.5562 28.4386L39.2155 26.1344C38.5468 25.435 38.5677 24.9618 39.3618 24.3858C41.8487 22.5959 45.2552 21.5261 49.0588 21.5879ZM49.2678 48.2502V46.2752C49.226 45.8226 49.5394 45.4317 49.9992 45.37C52.7996 44.7939 54.8686 43.251 56.3315 40.8645C56.9793 39.7948 58.0034 39.3833 59.2155 39.5685C60.3231 39.733 61.18 40.2885 61.6606 41.3171C61.9741 41.996 61.9323 42.7778 61.577 43.4361C59.3409 47.6124 55.2239 50.472 50.4799 51.1509C49.6648 51.2538 49.2887 50.9658 49.2678 50.1634C49.2469 49.5463 49.2678 48.9085 49.2678 48.2502Z" fill="#1AA64A"/>
<path d="M72.3401 30.4549V43.7653H69.7696V30.4549H65.5898V28.3359H76.478V30.4549H72.3401Z" fill="#007EA4"/>
<path d="M76.4775 38.7867C76.4566 38.0666 76.6029 37.3671 76.9164 36.7294C77.1881 36.071 77.6061 35.495 78.1285 35.0012C78.651 34.5075 79.2571 34.1166 79.9258 33.8697C81.3051 33.3348 82.8307 33.3348 84.21 33.8697C84.8997 34.1372 85.5057 34.5486 86.0073 35.063C86.5298 35.5567 86.9477 36.1533 87.2194 36.8117C87.7837 38.1283 87.8046 39.6096 87.2403 40.9262C86.9686 41.5846 86.5507 42.1606 86.0282 42.6544C84.9624 43.683 83.5204 44.2591 82.0157 44.2385C81.2842 44.2385 80.5737 44.115 79.884 43.8476C79.2153 43.5801 78.5883 43.1893 78.0867 42.6749C77.5643 42.1812 77.1672 41.5846 76.8746 40.9262C76.6238 40.2473 76.4984 39.5273 76.4775 38.7867ZM85.234 38.8278C85.2549 37.9432 84.9415 37.0997 84.3145 36.4619C83.7502 35.8447 82.9352 35.495 82.0784 35.5156C81.2215 35.5156 80.4274 35.8653 79.8422 36.4619C78.6092 37.7992 78.6092 39.8359 79.8422 41.1731C80.9916 42.3869 82.9352 42.4486 84.1682 41.3171C84.21 41.276 84.2727 41.2348 84.3145 41.1731C84.9415 40.5354 85.2549 39.6919 85.234 38.8278Z" fill="#007EA4"/>
<path d="M90.1664 43.8065V27.451H92.4862V37.9432L96.7495 33.7875H99.6126L95.0149 38.1901L100.072 43.7859H97.0421L92.4653 38.6221V43.7859H90.1455V43.8065H90.1664Z" fill="#007EA4"/>
<path d="M100.303 38.7867C100.282 38.0666 100.428 37.3671 100.742 36.7294C101.013 36.071 101.431 35.495 101.954 35.0012C102.476 34.5075 103.082 34.1166 103.751 33.8697C105.13 33.3348 106.656 33.3348 108.035 33.8697C108.725 34.1372 109.331 34.5486 109.832 35.063C110.355 35.5567 110.773 36.1533 111.045 36.8117C111.609 38.1283 111.63 39.6096 111.066 40.9262C110.794 41.5846 110.376 42.1606 109.853 42.6544C108.788 43.683 107.346 44.2591 105.841 44.2385C105.109 44.2385 104.399 44.115 103.709 43.8476C103.04 43.5801 102.413 43.1893 101.912 42.6749C101.389 42.1812 100.992 41.5846 100.7 40.9262C100.449 40.2473 100.303 39.5273 100.303 38.7867ZM109.038 38.8278C109.059 37.9432 108.746 37.0997 108.119 36.4619C107.555 35.8447 106.739 35.495 105.883 35.5156C105.026 35.5156 104.232 35.8653 103.647 36.4619C102.434 37.7992 102.434 39.8359 103.647 41.1731C104.796 42.3869 106.74 42.4486 107.973 41.3171C108.014 41.276 108.077 41.2348 108.119 41.1731C108.746 40.5354 109.08 39.6919 109.038 38.8278Z" fill="#007EA4"/>
<path d="M121.556 36.6471C121.222 36.2563 120.804 35.9682 120.323 35.7831C119.843 35.5773 119.32 35.4539 118.798 35.4745C117.857 35.4745 117.063 35.7625 116.499 36.3797C115.935 36.9969 115.642 37.7787 115.642 38.7867C115.642 39.7948 115.935 40.6383 116.499 41.2555C117.063 41.8727 117.878 42.1607 118.902 42.1607C119.425 42.1813 119.947 42.0578 120.407 41.8521C120.867 41.6258 121.264 41.2966 121.556 40.9058V43.5597C121.117 43.8065 120.658 43.9711 120.177 44.0946C119.675 44.218 119.132 44.2797 118.61 44.2797C117.021 44.2797 115.726 43.7654 114.702 42.7779C113.678 41.7904 113.218 40.4737 113.218 38.869C113.218 37.2643 113.74 35.9477 114.785 34.9807C115.83 34.0138 117.188 33.4995 118.86 33.4995C119.362 33.4995 119.843 33.5406 120.323 33.6641C120.762 33.7669 121.18 33.9315 121.556 34.1372V36.6471ZM126.258 35.3716C126.447 34.7956 126.781 34.3018 127.262 33.9109C127.7 33.5818 128.244 33.4172 128.787 33.4378C129.122 33.4378 129.435 33.4789 129.749 33.5406C130.083 33.6229 130.396 33.7463 130.689 33.8904L129.853 35.8242C129.665 35.6802 129.435 35.5773 129.205 35.5156C128.954 35.4333 128.683 35.3922 128.432 35.4128C127.659 35.4128 127.115 35.7008 126.76 36.318C126.405 36.9352 126.238 37.9638 126.238 39.4039V43.8065H123.918V33.7875H126.238V35.3716H126.258Z" fill="#1AA64A"/>
<path d="M133.782 48.4971H131.379L134.179 42.9219L130.438 33.767H133.03L134.89 38.9308L135.182 39.8771C135.266 40.2063 135.329 40.5355 135.371 40.8852C135.559 40.3092 135.768 39.7537 136.039 39.2188L136.102 39.0954L138.61 33.767H141.139L133.782 48.4971ZM142.372 48.4971V33.7876H144.691V35.4334C144.942 34.8162 145.402 34.3019 145.987 33.9727C146.635 33.6024 147.366 33.4379 148.119 33.4379C149.394 33.3967 150.606 33.9522 151.4 34.9191C152.236 35.9066 152.654 37.2027 152.654 38.7868C152.654 40.4532 152.257 41.7904 151.421 42.7573C150.585 43.7242 149.456 44.1974 148.035 44.1974C146.677 44.2591 145.402 43.6008 144.67 42.4899V48.4971H142.372ZM144.629 38.7662C144.629 39.7948 144.9 40.6178 145.402 41.2555C145.903 41.8521 146.677 42.2019 147.471 42.1813C148.349 42.1813 149.038 41.8933 149.519 41.3172C150 40.7412 150.25 39.9183 150.25 38.8485C150.25 37.7787 150 36.9764 149.498 36.3798C148.976 35.7832 148.223 35.454 147.429 35.4746C146.551 35.4746 145.862 35.7626 145.381 36.3592C144.9 36.9558 144.629 37.7376 144.629 38.7662ZM155.705 43.8065V35.8037H153.929V33.7876H155.705V30.0022H158.025V33.7876H159.801V35.8037H158.025V43.8065H155.705ZM161.076 38.7868C161.055 38.0667 161.222 37.3673 161.515 36.7295C162.079 35.4128 163.166 34.3842 164.503 33.8699C165.883 33.335 167.408 33.335 168.788 33.8699C169.477 34.1373 170.083 34.5488 170.585 35.0631C171.107 35.5569 171.525 36.1535 171.797 36.8118C172.361 38.1284 172.382 39.6097 171.818 40.9263C171.546 41.5847 171.128 42.1607 170.606 42.6545C169.54 43.6831 168.098 44.2386 166.593 44.2386C165.862 44.2386 165.151 44.1151 164.461 43.8477C163.793 43.5802 163.166 43.1894 162.664 42.675C162.142 42.1813 161.745 41.5847 161.452 40.9263C161.201 40.2269 161.055 39.5068 161.076 38.7868ZM169.832 38.8279C169.853 37.9433 169.519 37.0998 168.892 36.4621C168.328 35.8449 167.513 35.4951 166.656 35.5157C165.799 35.5157 165.005 35.8654 164.42 36.4621C163.208 37.7993 163.208 39.836 164.42 41.1732C165.569 42.387 167.513 42.4487 168.746 41.3172C168.788 41.2761 168.85 41.2349 168.892 41.1732C169.498 40.5355 169.832 39.692 169.832 38.8279Z" fill="#1AA64A"/>
</svg>
